<?xml version="1.0" encoding="utf-8"?>
<!-- Generator: Adobe Illustrator 19.0.0, SVG Export Plug-In . SVG Version: 6.00 Build 0)  -->
<svg version="1.1" id="Layer_1" xmlns="http://www.w3.org/2000/svg" xmlns:xlink="http://www.w3.org/1999/xlink" x="0px" y="0px"
	 viewBox="0 0 104.1 125" style="enable-background:new 0 0 104.1 125;" xml:space="preserve">
<style type="text/css">
	.st0{fill:#FFC300;stroke:#000000;stroke-width:5;stroke-linecap:round;stroke-linejoin:round;stroke-miterlimit:10;}
	.st1{fill:#666666;stroke:#000000;stroke-width:5;stroke-linecap:round;stroke-linejoin:round;stroke-miterlimit:10;}
	.st2{fill:#FFFFFF;stroke:#000000;stroke-width:5;stroke-linecap:round;stroke-linejoin:round;stroke-miterlimit:10;}
	.st3{fill:none;stroke:#000000;stroke-width:5;stroke-linecap:round;stroke-linejoin:round;stroke-miterlimit:10;}
</style>
<g>
	<path class="st0" d="M51.2,8.5v110c8.6,0,18.7-2.8,24.4-9.8c8.9-11,19.6-35.3,19.6-51.7C95.2,27.4,74.1,8.5,51.2,8.5z"/>
	<path class="st1" d="M7.3,57.1c0,16.4,10.7,40.6,19.6,51.7c5.6,7,15.7,9.8,24.4,9.8V8.5C28.4,8.5,7.3,27.4,7.3,57.1z"/>
	<path class="st2" d="M70.8,67.9c-5,2.1-10.6,0.6-14-3.3l21.5-9C78.7,60.7,75.8,65.7,70.8,67.9z"/>
	<line class="st3" x1="60.6" y1="101" x2="60.6" y2="91.5"/>
	<polyline class="st3" points="11.3,78.2 27.7,85.5 35.1,115 	"/>
	<polyline class="st3" points="91.2,78.2 74.8,85.5 67.4,115 	"/>
	<line class="st3" x1="41.9" y1="101" x2="41.9" y2="91.5"/>
	<line class="st3" x1="78.3" y1="55.6" x2="78.3" y2="46.3"/>
	<line class="st3" x1="30.5" y1="66.7" x2="39.7" y2="57.5"/>
	<line class="st3" x1="30.5" y1="57.5" x2="39.7" y2="66.7"/>
</g>
</svg>
