<?xml version="1.0" encoding="utf-8"?>
<!-- Generator: Adobe Illustrator 19.0.0, SVG Export Plug-In . SVG Version: 6.00 Build 0)  -->
<svg version="1.1" id="Layer_1" xmlns="http://www.w3.org/2000/svg" xmlns:xlink="http://www.w3.org/1999/xlink" x="0px" y="0px"
	 viewBox="0 0 118.9 124.3" style="enable-background:new 0 0 118.9 124.3;" xml:space="preserve">
<style type="text/css">
	.st0{fill:#005C2E;stroke:#000000;stroke-width:5;stroke-linecap:round;stroke-linejoin:round;stroke-miterlimit:10;}
	.st1{fill:#002A12;stroke:#000000;stroke-width:5;stroke-linecap:round;stroke-linejoin:round;stroke-miterlimit:10;}
	.st2{fill:#B3B3B3;stroke:#000000;stroke-width:5;stroke-linecap:round;stroke-linejoin:round;stroke-miterlimit:10;}
	.st3{fill:none;stroke:#000000;stroke-width:5;stroke-linecap:round;stroke-linejoin:round;stroke-miterlimit:10;}
	.st4{fill:#FFF000;stroke:#000000;stroke-width:5;stroke-linecap:round;stroke-linejoin:round;stroke-miterlimit:10;}
</style>
<g>
	<path class="st0" d="M60.7,8.6C50.9,8.6,9.1,28,9.1,103.7l36.2,7.5h30.7l36.2-7.5C112.3,28,70.5,8.6,60.7,8.6z M70.8,91.9H50.6
		L26,75.5C38.7,44.1,44.3,29,60.7,29c16.4,0,22,15.1,34.7,46.5L70.8,91.9z"/>
	<polygon class="st1" points="89.2,60.5 73.6,72.9 70.8,91.9 95.4,75.5 	"/>
	<polygon class="st1" points="32.2,60.5 26,75.5 50.6,91.9 47.8,72.9 	"/>
	<path class="st2" d="M60.7,29C47.2,29,41,39.3,32.2,60.5l15.6,12.5l2.8,18.9h20.2l2.8-18.9l15.6-12.5C80.4,39.3,74.2,29,60.7,29z
		 M56.1,58.7l-11.5-0.8v-8.4l11.5,2.7V58.7z M65.3,58.7v-6.5l11.5-2.7v8.4L65.3,58.7z"/>
	<line class="st3" x1="26" y1="75.5" x2="26" y2="91.9"/>
	<line class="st3" x1="55.6" y1="80.5" x2="65.6" y2="80.5"/>
	<line class="st3" x1="95.4" y1="75.5" x2="95.4" y2="91.9"/>
	<circle class="st4" cx="45.4" cy="111.3" r="7.8"/>
	<circle class="st4" cx="76.1" cy="111.3" r="7.8"/>
</g>
</svg>
