<?xml version="1.0" encoding="utf-8"?>
<!-- Generator: Adobe Illustrator 19.0.0, SVG Export Plug-In . SVG Version: 6.00 Build 0)  -->
<svg version="1.1" id="Layer_1" xmlns="http://www.w3.org/2000/svg" xmlns:xlink="http://www.w3.org/1999/xlink" x="0px" y="0px"
	 viewBox="0 0 100.7 126.4" style="enable-background:new 0 0 100.7 126.4;" xml:space="preserve">
<style type="text/css">
	.st0{fill:#FF141F;stroke:#000000;stroke-width:5;stroke-linecap:round;stroke-linejoin:round;stroke-miterlimit:10;}
	.st1{fill:#FFFFFF;stroke:#000000;stroke-width:5;stroke-linecap:round;stroke-linejoin:round;stroke-miterlimit:10;}
	.st2{fill:none;stroke:#000000;stroke-width:5;stroke-linecap:round;stroke-linejoin:round;stroke-miterlimit:10;}
</style>
<g>
	<path class="st0" d="M51.2,8.5c-22.9,0-44,18.9-44,48.6c0,16.4,10.7,40.6,19.6,51.7c5.6,7,15.7,9.8,24.4,9.8
		c8.6,0,18.7-2.8,24.4-9.8c8.9-11,19.6-35.3,19.6-51.7C95.2,27.4,74.1,8.5,51.2,8.5z"/>
	<path class="st1" d="M31.9,67.7c-4.9-2.1-7.7-7-7.3-12.1l21.1,8.8C42.4,68.4,36.9,69.8,31.9,67.7z"/>
	<path class="st1" d="M70.8,67.9c-5,2.1-10.6,0.6-14-3.3l21.5-9C78.7,60.7,75.8,65.7,70.8,67.9z"/>
	<line class="st2" x1="45.7" y1="64.5" x2="45.7" y2="50"/>
	<line class="st2" x1="56.8" y1="64.6" x2="56.8" y2="50"/>
	<line class="st2" x1="60.6" y1="99.4" x2="60.6" y2="93.1"/>
	<polyline class="st2" points="11.3,78.2 27.7,85.5 35.1,115 	"/>
	<polyline class="st2" points="91.2,78.2 74.8,85.5 67.4,115 	"/>
	<line class="st2" x1="46.7" y1="81" x2="48.2" y2="74.7"/>
	<line class="st2" x1="55.7" y1="81" x2="54.2" y2="74.7"/>
	<line class="st2" x1="51.2" y1="99.4" x2="51.2" y2="93.1"/>
	<line class="st2" x1="41.9" y1="99.4" x2="41.9" y2="93.1"/>
	<line class="st2" x1="38.5" y1="96.2" x2="64" y2="96.2"/>
</g>
</svg>
