<?xml version="1.0" encoding="utf-8"?>
<!-- Generator: Adobe Illustrator 19.0.0, SVG Export Plug-In . SVG Version: 6.00 Build 0)  -->
<svg version="1.1" id="Layer_1" xmlns="http://www.w3.org/2000/svg" xmlns:xlink="http://www.w3.org/1999/xlink" x="0px" y="0px"
	 viewBox="0 0 107.4 121.6" style="enable-background:new 0 0 107.4 121.6;" xml:space="preserve">
<style type="text/css">
	.st0{fill:#FFFFFF;stroke:#000000;stroke-miterlimit:10;}
	.st1{fill:#666666;stroke:#000000;stroke-width:5;stroke-linecap:round;stroke-linejoin:round;stroke-miterlimit:10;}
	.st2{fill:#FFFFFF;stroke:#000000;stroke-width:5;stroke-linecap:round;stroke-linejoin:round;stroke-miterlimit:10;}
	.st3{fill:#8ACE4B;stroke:#000000;stroke-width:5;stroke-linecap:round;stroke-linejoin:round;stroke-miterlimit:10;}
	.st4{fill:none;stroke:#000000;stroke-width:5;stroke-linecap:round;stroke-linejoin:round;stroke-miterlimit:10;}
</style>
<g>
	<path class="st0" d="M53.9,7.4C31.1,7.4,10,26.3,10,56c0,16.4,10.7,40.6,19.6,51.7c5.6,7,15.7,9.8,24.4,9.8
		c8.6,0,18.7-2.8,24.4-9.8c8.9-11,19.6-35.3,19.6-51.7C97.9,26.3,76.8,7.4,53.9,7.4z"/>
	<path class="st0" d="M71.3,24.8v12.6c0,7.7-4.9,14.1-11.8,16.5V74c6.9,2.3,11.8,8.8,11.8,16.5v11.9c0.8-0.7,1.5-1.4,2.1-2.2
		c7.1-8.8,15.7-28.2,15.7-41.3C89.1,43,81.7,31.1,71.3,24.8z"/>
	<path class="st0" d="M36.6,90.4c0-7.7,4.9-14.1,11.8-16.5V53.9c-6.9-2.3-11.8-8.8-11.8-16.5V24.8c-10.4,6.3-17.8,18.2-17.8,34
		c0,13.1,8.6,32.5,15.7,41.3c0.6,0.8,1.4,1.5,2.1,2.2V90.4z"/>
	<path class="st0" d="M34.6,66.7c-4.9-2.1-7.7-7-7.3-12.1l21.1,8.8C45.1,67.3,39.6,68.7,34.6,66.7z"/>
	<path class="st0" d="M73.5,66.8c-5,2.1-10.6,0.6-14-3.3l21.5-9C81.4,59.6,78.5,64.7,73.5,66.8z"/>
	<line class="st0" x1="48.4" y1="79" x2="48.4" y2="48.9"/>
	<line class="st0" x1="59.5" y1="79" x2="59.5" y2="48.9"/>
</g>
<g>
	<path class="st1" d="M53.9,7.4C31.1,7.4,10,26.3,10,56c0,16.4,10.7,40.6,19.6,51.7c5.6,7,15.7,9.8,24.4,9.8
		c8.6,0,18.7-2.8,24.4-9.8c8.9-11,19.6-35.3,19.6-51.7C97.9,26.3,76.8,7.4,53.9,7.4z"/>
	<path class="st2" d="M71.3,24.8v12.6c0,7.7-4.9,14.1-11.8,16.5V74c6.9,2.3,11.8,8.8,11.8,16.5v11.9c0.8-0.7,1.5-1.4,2.1-2.2
		c7.1-8.8,15.7-28.2,15.7-41.3C89.1,43,81.7,31.1,71.3,24.8z"/>
	<path class="st2" d="M36.6,90.4c0-7.7,4.9-14.1,11.8-16.5V53.9c-6.9-2.3-11.8-8.8-11.8-16.5V24.8c-10.4,6.3-17.8,18.2-17.8,34
		c0,13.1,8.6,32.5,15.7,41.3c0.6,0.8,1.4,1.5,2.1,2.2V90.4z"/>
	<path class="st3" d="M34.6,66.7c-4.9-2.1-7.7-7-7.3-12.1l21.1,8.8C45.1,67.3,39.6,68.7,34.6,66.7z"/>
	<path class="st3" d="M73.5,66.8c-5,2.1-10.6,0.6-14-3.3l21.5-9C81.4,59.6,78.5,64.7,73.5,66.8z"/>
	<line class="st4" x1="48.4" y1="79" x2="48.4" y2="48.9"/>
	<line class="st4" x1="59.5" y1="79" x2="59.5" y2="48.9"/>
</g>
</svg>
