<?xml version="1.0" encoding="utf-8"?>
<!-- Generator: Adobe Illustrator 19.0.0, SVG Export Plug-In . SVG Version: 6.00 Build 0)  -->
<svg version="1.1" id="Layer_1" xmlns="http://www.w3.org/2000/svg" xmlns:xlink="http://www.w3.org/1999/xlink" x="0px" y="0px"
	 viewBox="0 0 93.2 127" style="enable-background:new 0 0 93.2 127;" xml:space="preserve">
<style type="text/css">
	.st0{fill:#FFC300;}
	.st1{fill:none;stroke:#000000;stroke-width:5;stroke-linecap:round;stroke-linejoin:round;stroke-miterlimit:10;}
	.st2{fill:none;stroke:#FF7E0B;stroke-width:5;stroke-linecap:round;stroke-linejoin:round;stroke-miterlimit:10;}
	.st3{fill:#FFC300;stroke:#000000;stroke-width:5;stroke-linecap:round;stroke-linejoin:round;stroke-miterlimit:10;}
	.st4{fill:#45AE3A;stroke:#000000;stroke-width:5;stroke-linecap:round;stroke-linejoin:round;stroke-miterlimit:10;}
	.st5{fill:#FF141F;stroke:#000000;stroke-width:5;stroke-linecap:round;stroke-linejoin:round;stroke-miterlimit:10;}
	.st6{fill:#FF7E0B;stroke:#000000;stroke-width:5;stroke-linecap:round;stroke-linejoin:round;stroke-miterlimit:10;}
	.st7{fill:#FF8080;stroke:#000000;stroke-width:5;stroke-linecap:round;stroke-linejoin:round;stroke-miterlimit:10;}
	.st8{fill:#00D6DE;stroke:#000000;stroke-width:5;stroke-linecap:round;stroke-linejoin:round;stroke-miterlimit:10;}
	.st9{fill:#FFF000;stroke:#000000;stroke-width:5;stroke-linecap:round;stroke-linejoin:round;stroke-miterlimit:10;}
</style>
<g>
	<path class="st0" d="M74.6,82.9L74.6,82.9c3.6-3.5,5.8-8.3,5.8-13.6V45.7V33.5V28c0-3.8-3.1-6.9-6.9-6.9c-3.8,0-6.9,3.1-6.9,6.9
		v-4.3c0-3.8-3.1-6.9-6.9-6.9c-3.8,0-6.9,3.1-6.9,6.9v-4.3c0-3.8-3.1-6.9-6.9-6.9s-6.9,3.1-6.9,6.9V15c0-3.8-3.1-6.9-6.9-6.9
		s-6.9,3.1-6.9,6.9v17.7v12.8H18c-3.8,0-6.9,3.1-6.9,6.9v0c0,0,0,13.2,0,16.7c0,9.9,7.6,18.1,17.3,18.9L23,111.2
		c18.3,9.2,40,9.2,58.3,0L74.6,82.9z"/>
	<path class="st1" d="M22,86.4c2,0.9,4.1,1.6,6.4,1.8L23,111.2c18.3,9.2,40,9.2,58.3,0l-6.6-28.4l0,0c3.6-3.5,5.8-8.3,5.8-13.6V50"
		/>
	<path class="st1" d="M80.4,39.3v-5.8V28c0-3.8-3.1-6.9-6.9-6.9c-3.8,0-6.9,3.1-6.9,6.9v-4.3c0-3.8-3.1-6.9-6.9-6.9
		c-3.8,0-6.9,3.1-6.9,6.9v-4.3c0-3.8-3.1-6.9-6.9-6.9s-6.9,3.1-6.9,6.9V15c0-3.8-3.1-6.9-6.9-6.9s-6.9,3.1-6.9,6.9v17.7v12.8H18
		c-3.8,0-6.9,3.1-6.9,6.9v0c0,0,0,13.2,0,16.7c0,2.9,0.6,5.6,1.8,8"/>
	<path class="st2" d="M72.7,58.4v10.8c0,3.1-1.2,6-3.4,8.1"/>
	<path class="st1" d="M74.8,82.7c-2.1,2.1-4.7,3.7-7.7,4.7"/>
	<line class="st1" x1="24.9" y1="59.4" x2="19.8" y2="59.4"/>
	<polygon class="st3" points="23,111.2 23,111.2 23,111.2 	"/>
	<line class="st1" x1="38.8" y1="19.4" x2="38.8" y2="33.5"/>
	<line class="st1" x1="52.7" y1="23.7" x2="52.7" y2="33.5"/>
	<line class="st1" x1="66.5" y1="28" x2="66.5" y2="36.1"/>
	<path class="st4" d="M59.7,65.2c0,3.9-2.5,8.4-7.1,8.4s-7.1-4.5-7.1-8.4s2.5-8.4,7.1-8.4S59.7,61.2,59.7,65.2z"/>
	<line class="st1" x1="24.9" y1="62" x2="24.9" y2="45.6"/>
	<path class="st1" d="M28.4,88.1c0.5,0,1.1,0.1,1.7,0.1h5.1"/>
	<path class="st1" d="M84.6,109.4c-1.1,0.6-2.3,1.3-3.4,1.8"/>
	<path class="st1" d="M23,111.2c-1.1-0.6-2.3-1.2-3.4-1.8"/>
	<path class="st5" d="M20.3,72c-0.3,0-0.6-0.1-0.9-0.1c-3.9,0-7.1,3.2-7.1,7.1c0,3.9,3.2,7.1,7.1,7.1c3.9,0,7.1-3.2,7.1-7.1
		c0-0.3,0-0.6-0.1-0.9"/>
	<line class="st2" x1="72.3" y1="106.8" x2="69.5" y2="94.9"/>
	<path class="st6" d="M71.5,38.9c-0.2,0.2-0.5,0.4-0.7,0.6c-2.8,2.8-2.8,7.3,0,10c2.8,2.8,7.3,2.8,10,0c2.8-2.8,2.8-7.3,0-10
		c-0.2-0.2-0.4-0.4-0.7-0.6"/>
	<path class="st7" d="M57.6,36.3c-0.2,0.2-0.5,0.4-0.7,0.6c-2.8,2.8-2.8,7.3,0,10c2.8,2.8,7.3,2.8,10,0c2.8-2.8,2.8-7.3,0-10
		c-0.2-0.2-0.4-0.4-0.7-0.6"/>
	<path class="st8" d="M43.8,33.8c-0.2,0.2-0.5,0.4-0.7,0.6c-2.8,2.8-2.8,7.3,0,10c2.8,2.8,7.3,2.8,10,0c2.8-2.8,2.8-7.3,0-10
		c-0.2-0.2-0.4-0.4-0.7-0.6"/>
	<path class="st9" d="M30.1,31.4c-0.2,0.2-0.5,0.4-0.7,0.6c-2.8,2.8-2.8,7.3,0,10c2.8,2.8,7.3,2.8,10,0c2.8-2.8,2.8-7.3,0-10
		c-0.2-0.2-0.4-0.4-0.7-0.6"/>
</g>
</svg>
