<?xml version="1.0" encoding="utf-8"?>
<!-- Generator: Adobe Illustrator 19.0.0, SVG Export Plug-In . SVG Version: 6.00 Build 0)  -->
<svg version="1.1" id="Layer_1" xmlns="http://www.w3.org/2000/svg" xmlns:xlink="http://www.w3.org/1999/xlink" x="0px" y="0px"
	 viewBox="-383 215 106 133" style="enable-background:new -383 215 106 133;" xml:space="preserve">
<style type="text/css">
	.st0{fill:none;}
	.st1{fill:#FF141F;stroke:#000000;stroke-width:5;stroke-linecap:round;stroke-linejoin:round;stroke-miterlimit:10;}
	.st2{fill:#303030;stroke:#000000;stroke-width:5;stroke-linecap:round;stroke-linejoin:round;stroke-miterlimit:10;}
	.st3{fill:#FFFFFF;stroke:#000000;stroke-width:5;stroke-linecap:round;stroke-linejoin:round;stroke-miterlimit:10;}
</style>
<rect id="_x3C_Slice_x3E_" x="-404" y="202" class="st0" width="151" height="157"/>
<g id="XMLID_2_">
	<path id="XMLID_7_" class="st1" d="M-328.4,225.3c-22.9,0-44,18.9-44,48.6s21.1,61.4,44,61.4s44-31.8,44-61.4
		C-284.4,244.1-305.5,225.3-328.4,225.3z"/>
	
		<ellipse id="XMLID_6_" transform="matrix(-0.1188 -0.9929 0.9929 -0.1188 -667.0558 -32.3967)" class="st2" cx="-347.9" cy="279.8" rx="26.2" ry="15.3"/>
	
		<ellipse id="XMLID_5_" transform="matrix(-0.1188 0.9929 -0.9929 -0.1188 -67.7705 619.8218)" class="st2" cx="-308.9" cy="279.8" rx="26.2" ry="15.3"/>
	<path id="XMLID_4_" class="st3" d="M-347.6,285c-4.5-1.9-7.2-6.5-6.8-11.1l19.5,8.1C-337.9,285.5-343,286.9-347.6,285z"/>
	<path id="XMLID_3_" class="st3" d="M-309.2,285c-4.5,1.9-9.6,0.6-12.7-3l19.5-8.2C-302.1,278.5-304.7,283-309.2,285z"/>
</g>
</svg>
