<?xml version="1.0" encoding="utf-8"?>
<!-- Generator: Adobe Illustrator 19.0.0, SVG Export Plug-In . SVG Version: 6.00 Build 0)  -->
<svg version="1.1" id="Layer_1" xmlns:ev="http://www.w3.org/2001/xml-events"
	 xmlns="http://www.w3.org/2000/svg" xmlns:xlink="http://www.w3.org/1999/xlink" x="0px" y="0px" viewBox="654 -144 1920 1080"
	 style="enable-background:new 654 -144 1920 1080;" xml:space="preserve">
<style type="text/css">
	.st0{fill:none;}
	.st1{opacity:0.7;fill:#FFFFFF;enable-background:new    ;}
	.st2{fill:#00DBFF;}
	.st3{fill:url(#SVGID_1_);}
	.st4{opacity:1.000000e-002;fill:#FFFFFF;enable-background:new    ;}
	.st5{font-family:'Verdana';}
	.st6{font-size:20px;}
</style>
<pattern  x="654" y="936" width="210" height="210" patternUnits="userSpaceOnUse" id="SVGID_2_" viewBox="0 -210 210 210" style="overflow:visible;">
	<g>
		<polygon class="st0" points="0,0 210,0 210,-210 0,-210 		"/>
		<g>
			<polygon class="st0" points="0,-210 210,-210 210,0 0,0 			"/>
			<g>
				<polygon class="st0" points="0,0 210,0 210,-210 0,-210 				"/>
				<g>
					<polygon class="st1" points="0,0 210,0 210,-5 5,-5 5,-210 0,-210 					"/>
				</g>
			</g>
		</g>
	</g>
</pattern>
<title>white graph paper blue grid light blue 1920x1080 #add8e6 #ffffff 0° 5px 210px</title>
<desc>white graph paper blue grid light blue 1920x1080 #add8e6 #ffffff 0° 5px 210px</desc>
<rect x="654" y="-144" class="st2" width="1920" height="1080"/>
<pattern  id="SVGID_1_" xlink:href="#SVGID_2_" patternTransform="matrix(1 0 0 -1 2196 -35660)">
</pattern>
<rect x="654" y="-144" class="st3" width="1920" height="1080"/>
<path class="st4" d="M1313-285h2v1h-1v1h1v1h-2V-285z M1312-287h4v1h1v5h-1v1h-4v-1h-1v-5h1v5h4v-5h-4V-287z M1319-286h1v2h1v-2h1v2
	h-1v1h1v2h-1v-2h-1v2h-1v-2h1v-1h-1V-286z M1323-286h5v5h-1v-4h-1v4h-1v-4h-1v4h-1V-286z M1329-286h3l-1,1h-1v3h1v-3l1-1v5h-2v2h-1
	V-286z M1333-288h1v6h1v1h-2V-288z M1336-286h3l-1,1h-1v1h1v-1l1-1v3h-2v1h2v1h-3V-286z M1340-282h1v1h-1V-282z M1342-286h3v1h-2v3
	h2v1h-3V-286z M1346-286h3v5h-3l1-1h1v-3h-1v3l-1,1V-286z M1350-286h5v5h-1v-4h-1v4h-1v-4h-1v4h-1V-286z"/>
<text transform="matrix(1 0 0 1 1312 784)" class="st4 st5 st6">© xmple.com</text>
<a xlink:href="https://www.xmple.com" >
	<text transform="matrix(1 0 0 1 3107.5605 -268)" class="st4 st5 st6">xmple.com</text>
</a>
</svg>
