<?xml version="1.0" encoding="utf-8"?>
<!-- Generator: Adobe Illustrator 19.0.0, SVG Export Plug-In . SVG Version: 6.00 Build 0)  -->
<svg version="1.1" xmlns="http://www.w3.org/2000/svg" xmlns:xlink="http://www.w3.org/1999/xlink" x="0px" y="0px"
	 viewBox="0 0 680 490" style="enable-background:new 0 0 680 490;" xml:space="preserve">
<style type="text/css">
	.st0{opacity:0.8;fill:url(#SVGID_1_);}
	.st1{fill:url(#SVGID_2_);}
	.st2{fill:url(#SVGID_3_);}
	.st3{fill:url(#SVGID_4_);}
	.st4{opacity:0.6;fill:url(#SVGID_5_);}
	.st5{opacity:0.6;fill:url(#SVGID_6_);}
	.st6{fill:url(#SVGID_7_);}
	.st7{filter:url(#Adobe_OpacityMaskFilter);}
	.st8{opacity:0.6;mask:url(#SVGID_8_);}
	.st9{fill:#050505;}
	.st10{fill:url(#SVGID_9_);}
	.st11{opacity:0.2;fill:url(#SVGID_10_);}
	.st12{fill:#FFFFFF;}
</style>
<g id="Background">
</g>
<g id="Objects_1_">
	<g>
		<g>
			
				<image style="overflow:visible;" width="2779" height="1954" xlink:href="187D49DC.png"  transform="matrix(0.24 0 0 0.24 8.5839 11.453)">
			</image>
			
				<linearGradient id="SVGID_1_" gradientUnits="userSpaceOnUse" x1="342.0011" y1="569.9699" x2="342.0011" y2="-80.1126" gradientTransform="matrix(-4.489659e-011 -1 1 -4.489659e-011 96.1423 587.8577)">
				<stop  offset="0" style="stop-color:#0D0D0D"/>
				<stop  offset="1" style="stop-color:#000000"/>
			</linearGradient>
			<path class="st0" d="M646,20.9c11.1,0,20.1,9,20.1,20.1v409.6c0,11.1-9,20.1-20.1,20.1H36.1c-11.1,0-20.1-9-20.1-20.1V41
				c0-11.1,9-20.1,20.1-20.1H646z"/>
			
				<image style="overflow:visible;" width="2741" height="1910" xlink:href="187D49DD.png"  transform="matrix(0.24 0 0 0.24 12.3375 16.6576)">
			</image>
		</g>
		<g>
			
				<linearGradient id="SVGID_2_" gradientUnits="userSpaceOnUse" x1="-1410.8826" y1="-1859.7008" x2="-1415.8444" y2="-1859.7008" gradientTransform="matrix(-1 0 0 -1 -1380.386 -1613.8442)">
				<stop  offset="0" style="stop-color:#000000"/>
				<stop  offset="0.7927" style="stop-color:#333333"/>
			</linearGradient>
			<path class="st1" d="M33,248.3c1.4,0,2.5-1.1,2.5-2.5c0-1.4-1.1-2.5-2.5-2.5c-1.4,0-2.5,1.1-2.5,2.5
				C30.5,247.2,31.6,248.3,33,248.3"/>
			<g>
				
					<linearGradient id="SVGID_3_" gradientUnits="userSpaceOnUse" x1="-1421.7506" y1="-1862.0812" x2="-1426.5105" y2="-1857.3213" gradientTransform="matrix(-1 0 0 -1 -1380.386 -1613.8442)">
					<stop  offset="0" style="stop-color:#000000"/>
					<stop  offset="0.7927" style="stop-color:#666666"/>
				</linearGradient>
				<path class="st2" d="M43.7,249.2c1.9,0,3.4-1.5,3.4-3.4c0-1.9-1.5-3.4-3.4-3.4c-1.9,0-3.4,1.5-3.4,3.4
					C40.4,247.7,41.9,249.2,43.7,249.2"/>
				
					<linearGradient id="SVGID_4_" gradientUnits="userSpaceOnUse" x1="-1425.8551" y1="-1861.4213" x2="-1422.4111" y2="-1857.9773" gradientTransform="matrix(-1 0 0 -1 -1380.386 -1613.8442)">
					<stop  offset="0" style="stop-color:#282952"/>
					<stop  offset="0.7927" style="stop-color:#49497A"/>
				</linearGradient>
				<path class="st3" d="M43.7,248.3c1.3,0,2.4-1.1,2.4-2.4c0-1.3-1.1-2.4-2.4-2.4c-1.3,0-2.4,1.1-2.4,2.4
					C41.3,247.2,42.4,248.3,43.7,248.3"/>
				
					<linearGradient id="SVGID_5_" gradientUnits="userSpaceOnUse" x1="339.9776" y1="-52.2926" x2="341.6543" y2="-52.2926" gradientTransform="matrix(-4.489659e-011 -1 1 -4.489659e-011 96.1423 587.8577)">
					<stop  offset="0" style="stop-color:#FFFFFF"/>
					<stop  offset="1" style="stop-color:#FFFFFF;stop-opacity:0"/>
				</linearGradient>
				<path class="st4" d="M43.8,247.9c-0.5,0-0.8-0.4-0.8-0.8c0-0.5,0.4-0.8,0.8-0.8c0.5,0,0.8,0.4,0.8,0.8
					C44.7,247.5,44.3,247.9,43.8,247.9z"/>
				
					<linearGradient id="SVGID_6_" gradientUnits="userSpaceOnUse" x1="1250.3719" y1="95.6147" x2="1251.5698" y2="95.6147" gradientTransform="matrix(0.7071 -0.7071 0.7071 0.7071 -909.7174 1062.9983)">
					<stop  offset="0" style="stop-color:#FFFFFF"/>
					<stop  offset="1" style="stop-color:#FFFFFF;stop-opacity:0"/>
				</linearGradient>
				<path class="st5" d="M42,246.5c-0.2-0.2-0.2-0.6,0-0.8c0.2-0.2,0.6-0.2,0.8,0c0.2,0.2,0.2,0.6,0,0.8
					C42.6,246.7,42.3,246.7,42,246.5z"/>
			</g>
		</g>
		<g>
			<g>
				<g>
					
						<linearGradient id="SVGID_7_" gradientUnits="userSpaceOnUse" x1="342.001" y1="560.968" x2="342.001" y2="533.8571" gradientTransform="matrix(-4.489659e-011 -1 1 -4.489659e-011 96.1423 587.8577)">
						<stop  offset="0" style="stop-color:#262626"/>
						<stop  offset="0.4322" style="stop-color:#141414"/>
						<stop  offset="1" style="stop-color:#000000"/>
					</linearGradient>
					<circle class="st6" cx="643.6" cy="245.9" r="13.6"/>
				</g>
				<defs>
					<filter id="Adobe_OpacityMaskFilter" filterUnits="userSpaceOnUse" x="630" y="232.3" width="27.1" height="27.1">
						
							<feColorMatrix  type="matrix" values="-1 0 0 0 1  0 -1 0 0 1  0 0 -1 0 1  0 0 0 1 0" color-interpolation-filters="sRGB" result="source"/>
					</filter>
				</defs>
				<mask maskUnits="userSpaceOnUse" x="630" y="232.3" width="27.1" height="27.1" id="SVGID_8_">
					<g class="st7">
						
							<image style="overflow:visible;" width="130" height="130" xlink:href="187D49DC.jpg"  transform="matrix(0.24 0 0 0.24 627.9994 230.3035)">
						</image>
					</g>
				</mask>
				<g class="st8">
					<circle class="st9" cx="643.6" cy="245.9" r="13.6"/>
				</g>
			</g>
			
				<linearGradient id="SVGID_9_" gradientUnits="userSpaceOnUse" x1="331.4072" y1="558.3813" x2="352.5934" y2="536.4423" gradientTransform="matrix(-4.489659e-011 -1 1 -4.489659e-011 96.1423 587.8577)">
				<stop  offset="0.4417" style="stop-color:#333333"/>
				<stop  offset="0.5583" style="stop-color:#000000"/>
			</linearGradient>
			<path class="st10" d="M628.3,245.9c0,8.4,6.8,15.3,15.2,15.3c8.4,0,15.3-6.8,15.3-15.3c0-8.4-6.8-15.2-15.3-15.2
				C635.1,230.6,628.3,237.4,628.3,245.9z M656.3,245.9c0,7-5.7,12.7-12.7,12.7c-7,0-12.7-5.7-12.7-12.7c0-7,5.7-12.7,12.7-12.7
				C650.6,233.1,656.3,238.8,656.3,245.9z"/>
			
				<linearGradient id="SVGID_10_" gradientUnits="userSpaceOnUse" x1="327.231" y1="547.4124" x2="356.7713" y2="547.4124" gradientTransform="matrix(-4.489659e-011 -1 1 -4.489659e-011 96.1423 587.8577)">
				<stop  offset="0.3252" style="stop-color:#D9D9D9"/>
				<stop  offset="0.4103" style="stop-color:#E6E6E6;stop-opacity:0.8738"/>
				<stop  offset="0.5494" style="stop-color:#F4F4F4;stop-opacity:0.6677"/>
				<stop  offset="0.7186" style="stop-color:#FCFCFC;stop-opacity:0.4169"/>
				<stop  offset="1" style="stop-color:#FFFFFF;stop-opacity:0"/>
			</linearGradient>
			<path class="st11" d="M628.8,245.9c0,8.2,6.6,14.8,14.8,14.8c8.2,0,14.8-6.6,14.8-14.8c0-8.2-6.6-14.8-14.8-14.8
				C635.4,231.1,628.8,237.7,628.8,245.9z M656.7,245.9c0,7.3-5.9,13.1-13.1,13.1c-7.3,0-13.1-5.9-13.1-13.1
				c0-7.3,5.9-13.1,13.1-13.1C650.8,232.7,656.7,238.6,656.7,245.9z"/>
		</g>
		<g>
			<g>
				<g>
					<g>
						<path class="st12" d="M81.6,418.4c0,1.5,0.6,2.9,1.6,3.9l0.7-0.8c-0.8-0.8-1.2-1.9-1.2-3c0-1.2,0.5-2.3,1.3-3.1l-0.7-0.9
							C82.3,415.4,81.6,416.8,81.6,418.4z"/>
						<path class="st12" d="M85.9,419.6l1.1-1.3l-1.1-1.3c-0.3,0.3-0.5,0.8-0.5,1.3C85.4,418.9,85.6,419.3,85.9,419.6z"/>
						<path class="st12" d="M84.6,420.9l0.6-0.7c-0.4-0.5-0.7-1.1-0.7-1.8c0-0.7,0.3-1.3,0.8-1.8l-0.6-0.8c-0.7,0.7-1.1,1.6-1.1,2.6
							C83.6,419.3,84,420.2,84.6,420.9z"/>
					</g>
					<g>
						<circle class="st12" cx="84.4" cy="425" r="1.1"/>
						<path class="st12" d="M84.4,429c-0.6,0-1.1-0.5-1.1-1.1c0-0.6,0.5-1.1,1.1-1.1c0.6,0,1.1,0.5,1.1,1.1
							C85.5,428.5,85,429,84.4,429z"/>
						<circle class="st12" cx="84.4" cy="430.7" r="1.1"/>
						<circle class="st12" cx="84.4" cy="433.5" r="1.1"/>
						<circle class="st12" cx="84.4" cy="436.3" r="1.1"/>
					</g>
				</g>
				<g>
					<g>
						<path class="st12" d="M83.2,55.6h2.3h0.7v8h-3.8v-8H83.2z M85.2,54.3v0.9h-1.5v-0.9H85.2z"/>
					</g>
					<g>
						<path class="st12" d="M86.2,78h-2.6V79h-0.3c0-0.1,0-0.2,0-0.4c0-0.1-0.1-0.2-0.1-0.3c-0.1-0.1-0.1-0.2-0.2-0.2
							c-0.1-0.1-0.2-0.1-0.3-0.1v-0.3h3.7V78z"/>
						<path class="st12" d="M84,76.3c-0.1,0-0.3,0-0.4-0.1c-0.1,0-0.3-0.1-0.4-0.1c-0.1-0.1-0.2-0.1-0.3-0.2
							c-0.1-0.1-0.2-0.2-0.2-0.3c-0.1-0.1-0.1-0.3-0.1-0.5c0-0.2,0-0.3,0.1-0.5c0.1-0.1,0.1-0.2,0.2-0.3c0.1-0.1,0.2-0.2,0.3-0.2
							c0.1-0.1,0.3-0.1,0.4-0.1c0.1,0,0.3,0,0.4-0.1c0.1,0,0.3,0,0.4,0c0.1,0,0.3,0,0.4,0c0.1,0,0.3,0,0.4,0.1
							c0.1,0,0.3,0.1,0.4,0.1c0.1,0,0.2,0.1,0.3,0.2c0.1,0.1,0.2,0.2,0.2,0.3c0.1,0.1,0.1,0.3,0.1,0.5c0,0.2,0,0.4-0.1,0.5
							c-0.1,0.1-0.1,0.2-0.2,0.3c-0.1,0.1-0.2,0.2-0.3,0.2c-0.1,0.1-0.2,0.1-0.4,0.1c-0.1,0-0.3,0-0.4,0.1c-0.1,0-0.3,0-0.4,0
							C84.3,76.3,84.1,76.3,84,76.3z M84.9,75.9c0.2,0,0.3,0,0.5-0.1c0.2,0,0.3-0.1,0.4-0.2c0.1-0.1,0.2-0.2,0.2-0.4
							c0-0.2,0-0.3-0.2-0.4c-0.1-0.1-0.2-0.2-0.4-0.2c-0.1,0-0.3-0.1-0.5-0.1c-0.2,0-0.3,0-0.5,0c-0.1,0-0.2,0-0.3,0
							c-0.1,0-0.2,0-0.3,0c-0.1,0-0.2,0-0.3,0.1c-0.1,0-0.2,0.1-0.3,0.1c-0.1,0.1-0.1,0.1-0.2,0.2c0,0.1-0.1,0.2-0.1,0.3
							c0,0.1,0,0.2,0.1,0.3c0,0.1,0.1,0.2,0.2,0.2c0.1,0.1,0.2,0.1,0.3,0.1c0.1,0,0.2,0.1,0.3,0.1c0.1,0,0.2,0,0.3,0
							c0.1,0,0.2,0,0.3,0C84.5,75.9,84.7,75.9,84.9,75.9z"/>
						<path class="st12" d="M84,73.5c-0.1,0-0.3,0-0.4-0.1c-0.1,0-0.3-0.1-0.4-0.1c-0.1-0.1-0.2-0.1-0.3-0.2
							c-0.1-0.1-0.2-0.2-0.2-0.3c-0.1-0.1-0.1-0.3-0.1-0.5c0-0.2,0-0.4,0.1-0.5c0.1-0.1,0.1-0.2,0.2-0.3c0.1-0.1,0.2-0.2,0.3-0.2
							c0.1-0.1,0.3-0.1,0.4-0.1c0.1,0,0.3,0,0.4-0.1c0.1,0,0.3,0,0.4,0c0.1,0,0.3,0,0.4,0c0.1,0,0.3,0,0.4,0.1
							c0.1,0,0.3,0.1,0.4,0.1c0.1,0,0.2,0.1,0.3,0.2c0.1,0.1,0.2,0.2,0.2,0.3c0.1,0.1,0.1,0.3,0.1,0.5c0,0.2,0,0.4-0.1,0.5
							c-0.1,0.1-0.1,0.2-0.2,0.3c-0.1,0.1-0.2,0.2-0.3,0.2c-0.1,0.1-0.2,0.1-0.4,0.1c-0.1,0-0.3,0-0.4,0.1c-0.1,0-0.3,0-0.4,0
							C84.3,73.5,84.1,73.5,84,73.5z M84.9,73c0.2,0,0.3,0,0.5-0.1c0.2,0,0.3-0.1,0.4-0.2c0.1-0.1,0.2-0.3,0.2-0.4
							c0-0.2,0-0.3-0.2-0.4c-0.1-0.1-0.2-0.2-0.4-0.2c-0.1,0-0.3-0.1-0.5-0.1c-0.2,0-0.3,0-0.5,0c-0.1,0-0.2,0-0.3,0
							c-0.1,0-0.2,0-0.3,0c-0.1,0-0.2,0-0.3,0.1c-0.1,0-0.2,0.1-0.3,0.1c-0.1,0.1-0.1,0.1-0.2,0.2c0,0.1-0.1,0.2-0.1,0.3
							c0,0.1,0,0.2,0.1,0.3c0,0.1,0.1,0.2,0.2,0.2c0.1,0.1,0.2,0.1,0.3,0.1c0.1,0,0.2,0.1,0.3,0.1c0.1,0,0.2,0,0.3,0
							c0.1,0,0.2,0,0.3,0C84.5,73,84.7,73,84.9,73z"/>
						<path class="st12" d="M83.2,70.3c-0.1,0-0.2-0.1-0.3-0.1c-0.1-0.1-0.2-0.2-0.2-0.3c-0.1-0.1-0.1-0.2-0.1-0.4
							c0-0.2,0-0.3,0.1-0.4c0.1-0.1,0.1-0.2,0.2-0.2c0.1-0.1,0.2-0.1,0.3-0.1c0.1,0,0.3,0,0.4,0c0.1,0,0.3,0,0.4,0
							c0.1,0,0.2,0.1,0.3,0.1c0.1,0.1,0.2,0.2,0.2,0.3c0.1,0.1,0.1,0.2,0.1,0.4c0,0.2,0,0.3-0.1,0.4c-0.1,0.1-0.1,0.2-0.2,0.3
							c-0.1,0.1-0.2,0.1-0.3,0.1c-0.1,0-0.3,0-0.4,0C83.5,70.4,83.3,70.3,83.2,70.3z M83.8,70c0.1,0,0.2,0,0.2-0.1
							c0.1,0,0.1-0.1,0.2-0.1c0.1-0.1,0.1-0.1,0.1-0.2c0-0.1,0-0.2-0.1-0.2c-0.1-0.1-0.1-0.1-0.2-0.1c-0.1,0-0.2-0.1-0.2-0.1
							c-0.1,0-0.2,0-0.3,0c-0.1,0-0.2,0-0.2,0c-0.1,0-0.2,0-0.2,0.1c-0.1,0-0.1,0.1-0.2,0.1c-0.1,0.1-0.1,0.1-0.1,0.2
							c0,0.1,0,0.2,0.1,0.2c0,0.1,0.1,0.1,0.2,0.1c0.1,0,0.2,0.1,0.2,0.1c0.1,0,0.2,0,0.2,0C83.7,70,83.7,70,83.8,70z M82.5,66.7
							l3.8,2.8v0.4l-3.8-2.8V66.7z M84.8,67.8c-0.1,0-0.2-0.1-0.3-0.1c-0.1-0.1-0.2-0.2-0.2-0.3c-0.1-0.1-0.1-0.2-0.1-0.4
							c0-0.2,0-0.3,0.1-0.4c0.1-0.1,0.1-0.2,0.2-0.3c0.1-0.1,0.2-0.1,0.3-0.1c0.1,0,0.3,0,0.4,0c0.1,0,0.3,0,0.4,0
							c0.1,0,0.2,0.1,0.3,0.1c0.1,0.1,0.2,0.2,0.2,0.3c0.1,0.1,0.1,0.2,0.1,0.4c0,0.2,0,0.3-0.1,0.4c-0.1,0.1-0.1,0.2-0.2,0.3
							c-0.1,0.1-0.2,0.1-0.3,0.1c-0.1,0-0.3,0-0.4,0C85.1,67.8,85,67.8,84.8,67.8z M85.5,67.4c0.1,0,0.2,0,0.2-0.1
							c0.1,0,0.1-0.1,0.2-0.1C86,67.2,86,67.1,86,67c0-0.1,0-0.2-0.1-0.2c-0.1-0.1-0.1-0.1-0.2-0.1c-0.1,0-0.2-0.1-0.2-0.1
							c-0.1,0-0.2,0-0.2,0c-0.1,0-0.2,0-0.2,0c-0.1,0-0.2,0-0.2,0.1c-0.1,0-0.1,0.1-0.2,0.1c0,0.1-0.1,0.1-0.1,0.2
							c0,0.1,0,0.2,0.1,0.2c0.1,0.1,0.1,0.1,0.2,0.1c0.1,0,0.2,0.1,0.2,0.1c0.1,0,0.2,0,0.2,0C85.3,67.4,85.4,67.4,85.5,67.4z"/>
					</g>
				</g>
			</g>
			<g>
				<path class="st12" d="M85.7,249.5c0.1-0.1,0.1-0.3,0.1-0.5c0-0.3-0.1-0.5-0.3-0.6c-0.2-0.1-0.6-0.2-1.1-0.2l0,0
					c0.2,0.1,0.3,0.2,0.4,0.4c0.1,0.2,0.1,0.3,0.1,0.5c0,0.2,0,0.4-0.1,0.5c-0.1,0.1-0.1,0.3-0.3,0.4c-0.1,0.1-0.2,0.2-0.4,0.2
					c-0.2,0.1-0.3,0.1-0.5,0.1c-0.2,0-0.3,0-0.5-0.1c-0.1-0.1-0.3-0.1-0.4-0.2c-0.1-0.1-0.2-0.2-0.2-0.4c-0.1-0.1-0.1-0.3-0.1-0.5
					c0-0.2,0-0.3,0.1-0.5c0.1-0.2,0.1-0.3,0.3-0.4c0.1-0.1,0.3-0.2,0.5-0.3c0.2-0.1,0.5-0.1,0.9-0.1c0.6,0,1.1,0.1,1.5,0.3
					c0.3,0.2,0.5,0.5,0.5,1c0,0.3-0.1,0.6-0.2,0.8c-0.2,0.2-0.4,0.3-0.7,0.3v-0.4C85.5,249.7,85.6,249.7,85.7,249.5z M83.4,248.4
					c-0.1,0-0.2,0.1-0.3,0.1c-0.1,0.1-0.1,0.1-0.2,0.2c0,0.1-0.1,0.2-0.1,0.3c0,0.1,0,0.2,0.1,0.3c0.1,0.1,0.1,0.2,0.2,0.2
					c0.1,0.1,0.2,0.1,0.3,0.1c0.1,0,0.2,0,0.3,0c0.1,0,0.2,0,0.3-0.1c0.1,0,0.2-0.1,0.2-0.2c0.1-0.1,0.1-0.1,0.2-0.2
					c0-0.1,0.1-0.2,0.1-0.3c0-0.1,0-0.2-0.1-0.3c0-0.1-0.1-0.2-0.2-0.2c-0.1-0.1-0.2-0.1-0.3-0.2c-0.1,0-0.2-0.1-0.3-0.1
					C83.7,248.3,83.5,248.4,83.4,248.4z"/>
				<path class="st12" d="M84.1,247.1h-0.6v-0.6h0.6V247.1z M85.6,246.6h0.6v0.6h-0.6V246.6z"/>
				<path class="st12" d="M85,243.5h0.4v0.5h0.9v0.4h-0.9v1.6h-0.4l-2.4-1.7V244H85V243.5z M83.2,244.4L83.2,244.4l1.8,1.2v-1.2
					H83.2z"/>
				<path class="st12" d="M86.2,241.9h-2.6v0.9h-0.3c0-0.1,0-0.2,0-0.4c0-0.1-0.1-0.2-0.1-0.3c-0.1-0.1-0.1-0.2-0.2-0.2
					c-0.1-0.1-0.2-0.1-0.3-0.1v-0.3h3.7V241.9z"/>
			</g>
		</g>
	</g>
</g>
</svg>
