<?xml version="1.0" encoding="utf-8"?>
<!-- Generator: Adobe Illustrator 19.0.0, SVG Export Plug-In . SVG Version: 6.00 Build 0)  -->
<svg version="1.1" id="Layer_1" xmlns="http://www.w3.org/2000/svg" xmlns:xlink="http://www.w3.org/1999/xlink" x="0px" y="0px"
	 viewBox="0 0 85.8 119.6" style="enable-background:new 0 0 85.8 119.6;" xml:space="preserve">
<style type="text/css">
	.st0{fill:#FFA600;}
	.st1{fill:none;stroke:#000000;stroke-width:5;stroke-linecap:round;stroke-linejoin:round;stroke-miterlimit:10;}
</style>
<g>
	<path class="st0" d="M67.4,6.3c-5.9,0-10.6,4.8-10.6,10.6c0-5.9-4.8-10.6-10.6-10.6S35.5,11.1,35.5,17c0-5.9-4.8-10.6-10.6-10.6
		C19,6.3,14.2,11.1,14.2,17v14.3c-4.9,0.4-8.7,4.5-8.7,9.6v31.6c0,9.4,5.9,17.4,14.2,20.5v21.6h51.8V88.1c4.1-4,6.7-9.5,6.7-15.7V17
		C78.1,11.1,73.3,6.3,67.4,6.3z"/>
	<line class="st1" x1="71.4" y1="88.1" x2="71.4" y2="114.5"/>
	<line class="st1" x1="19.6" y1="114.5" x2="19.6" y2="92.9"/>
	<line class="st1" x1="28" y1="104.3" x2="28" y2="114.5"/>
	<path class="st1" d="M78.1,31.3v41.2c0,12.1-9.8,21.9-21.9,21.9"/>
	<path class="st1" d="M35.5,31.3V17c0-5.9-4.8-10.6-10.6-10.6C19,6.3,14.2,11.1,14.2,17v14.3"/>
	<path class="st1" d="M53.8,40.1c1.9-1.9,3-4.5,3-7.4V17c0-5.9-4.8-10.6-10.6-10.6S35.5,11.1,35.5,17"/>
	<path class="st1" d="M67.4,6.3c-5.9,0-10.6,4.8-10.6,10.6v15.7c0,5.9,4.8,10.6,10.6,10.6c5.9,0,10.6-4.8,10.6-10.6V17
		C78.1,11.1,73.3,6.3,67.4,6.3z"/>
	<path class="st1" d="M22.6,55.2c0,0,14.4,0,19.5,0c6.6,0,12-5.4,12-12c0-6.6-5.4-12-12-12c-5.1,0-27.1,0-27.1,0
		c-5.3,0-9.6,4.3-9.6,9.6v31.6c0,12.1,9.8,21.9,21.9,21.9"/>
	<path class="st1" d="M56.1,86.9c0-15.8-13-24.5-25.9-25.8v-5.9"/>
	<line class="st1" x1="56.8" y1="26.6" x2="78.1" y2="19.5"/>
	<line class="st1" x1="78.1" y1="32.7" x2="56.8" y2="32.7"/>
	<line class="st1" x1="35.5" y1="24.8" x2="56.8" y2="20.7"/>
	<line class="st1" x1="14.2" y1="18.7" x2="35.5" y2="20.3"/>
	<line class="st1" x1="29.8" y1="31.3" x2="35.9" y2="55.2"/>
	<line class="st1" x1="50.4" y1="71.1" x2="78.1" y2="66"/>
	<line class="st1" x1="63.6" y1="68.6" x2="66" y2="43.2"/>
	<line class="st1" x1="30.1" y1="61.1" x2="5.5" y2="72.4"/>
</g>
</svg>
